<mxfile host="app.diagrams.net" modified="2023-02-20T00:04:12.626Z" agent="5.0 (X11; Linux x86_64) AppleWebKit/537.36 (KHTML, like Gecko) Chrome/110.0.0.0 Safari/537.36" etag="-RLg7FG5IAbU9DwgDoQx" version="20.8.20" type="github">
  <diagram name="Page-1" id="spaIkJhinvKhO7ccCemF">
    <mxGraphModel dx="1867" dy="534" grid="1" gridSize="10" guides="1" tooltips="1" connect="1" arrows="1" fold="1" page="1" pageScale="1" pageWidth="827" pageHeight="1169" math="0" shadow="0">
      <root>
        <mxCell id="0" />
        <mxCell id="1" parent="0" />
        <mxCell id="sab_f4_oYgcBB9rR3nIX-75" value="" style="endArrow=classic;html=1;rounded=0;" parent="1" edge="1">
          <mxGeometry relative="1" as="geometry">
            <mxPoint x="-450" y="300" as="sourcePoint" />
            <mxPoint x="-550" y="300" as="targetPoint" />
          </mxGeometry>
        </mxCell>
        <mxCell id="sab_f4_oYgcBB9rR3nIX-76" value="" style="shape=message;html=1;outlineConnect=0;" parent="sab_f4_oYgcBB9rR3nIX-75" vertex="1">
          <mxGeometry width="20" height="14" relative="1" as="geometry">
            <mxPoint x="-10" y="-7" as="offset" />
          </mxGeometry>
        </mxCell>
        <mxCell id="sab_f4_oYgcBB9rR3nIX-12" value="" style="whiteSpace=wrap;html=1;aspect=fixed;fontFamily=Times New Roman;labelBackgroundColor=#ffffff;fontStyle=1" parent="1" vertex="1">
          <mxGeometry x="-730" y="90" width="670" height="670" as="geometry" />
        </mxCell>
        <mxCell id="sab_f4_oYgcBB9rR3nIX-15" value="Namespace : wordpress" style="text;html=1;strokeColor=none;fillColor=none;align=center;verticalAlign=middle;whiteSpace=wrap;rounded=0;fontStyle=1" parent="1" vertex="1">
          <mxGeometry x="-490" y="110" width="210" height="30" as="geometry" />
        </mxCell>
        <mxCell id="sab_f4_oYgcBB9rR3nIX-17" value="" style="sketch=0;html=1;dashed=0;whitespace=wrap;fillColor=#2875E2;strokeColor=#ffffff;points=[[0.005,0.63,0],[0.1,0.2,0],[0.9,0.2,0],[0.5,0,0],[0.995,0.63,0],[0.72,0.99,0],[0.5,1,0],[0.28,0.99,0]];verticalLabelPosition=bottom;align=center;verticalAlign=top;shape=mxgraph.kubernetes.icon;prIcon=svc" parent="1" vertex="1">
          <mxGeometry x="-650" y="65" width="80" height="100" as="geometry" />
        </mxCell>
        <mxCell id="sab_f4_oYgcBB9rR3nIX-18" value="svc de type : nodeport" style="text;html=1;strokeColor=none;fillColor=none;align=center;verticalAlign=middle;whiteSpace=wrap;rounded=0;fontStyle=1" parent="1" vertex="1">
          <mxGeometry x="-590" y="90" width="140" height="30" as="geometry" />
        </mxCell>
        <mxCell id="sab_f4_oYgcBB9rR3nIX-19" value="" style="whiteSpace=wrap;html=1;aspect=fixed;" parent="1" vertex="1">
          <mxGeometry x="-710" y="210" width="260" height="260" as="geometry" />
        </mxCell>
        <mxCell id="sab_f4_oYgcBB9rR3nIX-21" value="" style="whiteSpace=wrap;html=1;aspect=fixed;" parent="1" vertex="1">
          <mxGeometry x="-330" y="210" width="260" height="260" as="geometry" />
        </mxCell>
        <mxCell id="sab_f4_oYgcBB9rR3nIX-22" value="" style="sketch=0;html=1;dashed=0;whitespace=wrap;fillColor=#2875E2;strokeColor=#ffffff;points=[[0.005,0.63,0],[0.1,0.2,0],[0.9,0.2,0],[0.5,0,0],[0.995,0.63,0],[0.72,0.99,0],[0.5,1,0],[0.28,0.99,0]];verticalLabelPosition=bottom;align=center;verticalAlign=top;shape=mxgraph.kubernetes.icon;prIcon=deploy" parent="1" vertex="1">
          <mxGeometry x="-490" y="180" width="50" height="48" as="geometry" />
        </mxCell>
        <mxCell id="sab_f4_oYgcBB9rR3nIX-23" value="" style="sketch=0;html=1;dashed=0;whitespace=wrap;fillColor=#2875E2;strokeColor=#ffffff;points=[[0.005,0.63,0],[0.1,0.2,0],[0.9,0.2,0],[0.5,0,0],[0.995,0.63,0],[0.72,0.99,0],[0.5,1,0],[0.28,0.99,0]];verticalLabelPosition=bottom;align=center;verticalAlign=top;shape=mxgraph.kubernetes.icon;prIcon=deploy" parent="1" vertex="1">
          <mxGeometry x="-120" y="180" width="50" height="48" as="geometry" />
        </mxCell>
        <mxCell id="sab_f4_oYgcBB9rR3nIX-24" value="deployment" style="text;html=1;strokeColor=none;fillColor=none;align=center;verticalAlign=middle;whiteSpace=wrap;rounded=0;fontStyle=1" parent="1" vertex="1">
          <mxGeometry x="-500" y="150" width="60" height="30" as="geometry" />
        </mxCell>
        <mxCell id="sab_f4_oYgcBB9rR3nIX-25" value="deployment" style="text;html=1;strokeColor=none;fillColor=none;align=center;verticalAlign=middle;whiteSpace=wrap;rounded=0;fontStyle=1" parent="1" vertex="1">
          <mxGeometry x="-130" y="150" width="60" height="30" as="geometry" />
        </mxCell>
        <mxCell id="sab_f4_oYgcBB9rR3nIX-26" value="" style="whiteSpace=wrap;html=1;aspect=fixed;" parent="1" vertex="1">
          <mxGeometry x="-665" y="270" width="170" height="170" as="geometry" />
        </mxCell>
        <mxCell id="sab_f4_oYgcBB9rR3nIX-27" value="" style="whiteSpace=wrap;html=1;aspect=fixed;" parent="1" vertex="1">
          <mxGeometry x="-280" y="262" width="170" height="170" as="geometry" />
        </mxCell>
        <mxCell id="sab_f4_oYgcBB9rR3nIX-29" value="" style="sketch=0;html=1;dashed=0;whitespace=wrap;fillColor=#2875E2;strokeColor=#ffffff;points=[[0.005,0.63,0],[0.1,0.2,0],[0.9,0.2,0],[0.5,0,0],[0.995,0.63,0],[0.72,0.99,0],[0.5,1,0],[0.28,0.99,0]];verticalLabelPosition=bottom;align=center;verticalAlign=top;shape=mxgraph.kubernetes.icon;prIcon=vol" parent="1" vertex="1">
          <mxGeometry x="-605" y="510" width="50" height="48" as="geometry" />
        </mxCell>
        <mxCell id="sab_f4_oYgcBB9rR3nIX-30" value="" style="sketch=0;html=1;dashed=0;whitespace=wrap;fillColor=#2875E2;strokeColor=#ffffff;points=[[0.005,0.63,0],[0.1,0.2,0],[0.9,0.2,0],[0.5,0,0],[0.995,0.63,0],[0.72,0.99,0],[0.5,1,0],[0.28,0.99,0]];verticalLabelPosition=bottom;align=center;verticalAlign=top;shape=mxgraph.kubernetes.icon;prIcon=vol" parent="1" vertex="1">
          <mxGeometry x="-230" y="510" width="50" height="48" as="geometry" />
        </mxCell>
        <mxCell id="sab_f4_oYgcBB9rR3nIX-31" value="" style="sketch=0;html=1;dashed=0;whitespace=wrap;fillColor=#2875E2;strokeColor=#ffffff;points=[[0.005,0.63,0],[0.1,0.2,0],[0.9,0.2,0],[0.5,0,0],[0.995,0.63,0],[0.72,0.99,0],[0.5,1,0],[0.28,0.99,0]];verticalLabelPosition=bottom;align=center;verticalAlign=top;shape=mxgraph.kubernetes.icon;prIcon=rs" parent="1" vertex="1">
          <mxGeometry x="-530" y="228" width="50" height="48" as="geometry" />
        </mxCell>
        <mxCell id="sab_f4_oYgcBB9rR3nIX-32" value="" style="sketch=0;html=1;dashed=0;whitespace=wrap;fillColor=#2875E2;strokeColor=#ffffff;points=[[0.005,0.63,0],[0.1,0.2,0],[0.9,0.2,0],[0.5,0,0],[0.995,0.63,0],[0.72,0.99,0],[0.5,1,0],[0.28,0.99,0]];verticalLabelPosition=bottom;align=center;verticalAlign=top;shape=mxgraph.kubernetes.icon;prIcon=rs" parent="1" vertex="1">
          <mxGeometry x="-160" y="228" width="50" height="48" as="geometry" />
        </mxCell>
        <mxCell id="sab_f4_oYgcBB9rR3nIX-33" value="replicas : 1" style="text;html=1;strokeColor=none;fillColor=none;align=center;verticalAlign=middle;whiteSpace=wrap;rounded=0;fontStyle=1" parent="1" vertex="1">
          <mxGeometry x="-610" y="220" width="80" height="30" as="geometry" />
        </mxCell>
        <mxCell id="sab_f4_oYgcBB9rR3nIX-36" value="" style="sketch=0;html=1;dashed=0;whitespace=wrap;fillColor=#2875E2;strokeColor=#ffffff;points=[[0.005,0.63,0],[0.1,0.2,0],[0.9,0.2,0],[0.5,0,0],[0.995,0.63,0],[0.72,0.99,0],[0.5,1,0],[0.28,0.99,0]];verticalLabelPosition=bottom;align=center;verticalAlign=top;shape=mxgraph.kubernetes.icon;prIcon=pod" parent="1" vertex="1">
          <mxGeometry x="-605" y="316" width="50" height="48" as="geometry" />
        </mxCell>
        <mxCell id="sab_f4_oYgcBB9rR3nIX-37" value="" style="sketch=0;html=1;dashed=0;whitespace=wrap;fillColor=#2875E2;strokeColor=#ffffff;points=[[0.005,0.63,0],[0.1,0.2,0],[0.9,0.2,0],[0.5,0,0],[0.995,0.63,0],[0.72,0.99,0],[0.5,1,0],[0.28,0.99,0]];verticalLabelPosition=bottom;align=center;verticalAlign=top;shape=mxgraph.kubernetes.icon;prIcon=pod" parent="1" vertex="1">
          <mxGeometry x="-235" y="308" width="50" height="64" as="geometry" />
        </mxCell>
        <mxCell id="sab_f4_oYgcBB9rR3nIX-38" value="&lt;b&gt;pod : wordpress&lt;/b&gt;" style="text;html=1;strokeColor=none;fillColor=none;align=center;verticalAlign=middle;whiteSpace=wrap;rounded=0;" parent="1" vertex="1">
          <mxGeometry x="-650" y="380" width="60" height="30" as="geometry" />
        </mxCell>
        <mxCell id="sab_f4_oYgcBB9rR3nIX-39" value="&lt;b&gt;pod : MysQL&lt;/b&gt;" style="text;html=1;strokeColor=none;fillColor=none;align=center;verticalAlign=middle;whiteSpace=wrap;rounded=0;" parent="1" vertex="1">
          <mxGeometry x="-170" y="372" width="60" height="30" as="geometry" />
        </mxCell>
        <mxCell id="sab_f4_oYgcBB9rR3nIX-40" value="replicas : 1" style="text;html=1;strokeColor=none;fillColor=none;align=center;verticalAlign=middle;whiteSpace=wrap;rounded=0;fontStyle=1" parent="1" vertex="1">
          <mxGeometry x="-240" y="237" width="80" height="30" as="geometry" />
        </mxCell>
        <mxCell id="sab_f4_oYgcBB9rR3nIX-42" value="" style="sketch=0;html=1;dashed=0;whitespace=wrap;fillColor=#2875E2;strokeColor=#ffffff;points=[[0.005,0.63,0],[0.1,0.2,0],[0.9,0.2,0],[0.5,0,0],[0.995,0.63,0],[0.72,0.99,0],[0.5,1,0],[0.28,0.99,0]];verticalLabelPosition=bottom;align=center;verticalAlign=top;shape=mxgraph.kubernetes.icon;prIcon=svc" parent="1" vertex="1">
          <mxGeometry x="-450" y="300" width="100" height="94" as="geometry" />
        </mxCell>
        <mxCell id="sab_f4_oYgcBB9rR3nIX-69" value="" style="endArrow=classic;html=1;rounded=0;exitX=0.16;exitY=0.578;exitDx=0;exitDy=0;exitPerimeter=0;" parent="1" source="sab_f4_oYgcBB9rR3nIX-37" edge="1">
          <mxGeometry relative="1" as="geometry">
            <mxPoint x="-260" y="346.5" as="sourcePoint" />
            <mxPoint x="-360" y="346.5" as="targetPoint" />
          </mxGeometry>
        </mxCell>
        <mxCell id="sab_f4_oYgcBB9rR3nIX-70" value="" style="shape=message;html=1;outlineConnect=0;" parent="sab_f4_oYgcBB9rR3nIX-69" vertex="1">
          <mxGeometry width="20" height="14" relative="1" as="geometry">
            <mxPoint x="-10" y="-7" as="offset" />
          </mxGeometry>
        </mxCell>
        <mxCell id="sab_f4_oYgcBB9rR3nIX-43" value="svc de type : ClusterIP" style="text;html=1;strokeColor=none;fillColor=none;align=center;verticalAlign=middle;whiteSpace=wrap;rounded=0;fontStyle=1" parent="1" vertex="1">
          <mxGeometry x="-465" y="256" width="140" height="60" as="geometry" />
        </mxCell>
        <mxCell id="sab_f4_oYgcBB9rR3nIX-45" value="" style="endArrow=classic;html=1;rounded=0;entryX=0.06;entryY=0.511;entryDx=0;entryDy=0;entryPerimeter=0;" parent="1" target="sab_f4_oYgcBB9rR3nIX-42" edge="1">
          <mxGeometry relative="1" as="geometry">
            <mxPoint x="-555" y="346.5" as="sourcePoint" />
            <mxPoint x="-455" y="346.5" as="targetPoint" />
            <Array as="points" />
          </mxGeometry>
        </mxCell>
        <mxCell id="sab_f4_oYgcBB9rR3nIX-46" value="" style="shape=message;html=1;outlineConnect=0;" parent="sab_f4_oYgcBB9rR3nIX-45" vertex="1">
          <mxGeometry width="20" height="14" relative="1" as="geometry">
            <mxPoint x="-10" y="-7" as="offset" />
          </mxGeometry>
        </mxCell>
        <mxCell id="sab_f4_oYgcBB9rR3nIX-78" value="" style="line;strokeWidth=4;direction=south;html=1;perimeter=backbonePerimeter;points=[];outlineConnect=0;" parent="1" vertex="1">
          <mxGeometry x="-585" y="364" width="10" height="146" as="geometry" />
        </mxCell>
        <mxCell id="sab_f4_oYgcBB9rR3nIX-79" value="" style="line;strokeWidth=4;direction=south;html=1;perimeter=backbonePerimeter;points=[];outlineConnect=0;" parent="1" vertex="1">
          <mxGeometry x="-467.5" y="364" width="525" height="146" as="geometry" />
        </mxCell>
        <mxCell id="sab_f4_oYgcBB9rR3nIX-80" value="Eric-BOIDI" style="text;html=1;strokeColor=none;fillColor=none;align=center;verticalAlign=middle;whiteSpace=wrap;rounded=0;fontStyle=1" parent="1" vertex="1">
          <mxGeometry x="-225" y="630" width="115" height="30" as="geometry" />
        </mxCell>
        <mxCell id="sab_f4_oYgcBB9rR3nIX-81" value="/data/wordpress" style="text;html=1;strokeColor=none;fillColor=none;align=center;verticalAlign=middle;whiteSpace=wrap;rounded=0;fontStyle=1" parent="1" vertex="1">
          <mxGeometry x="-530" y="519" width="60" height="30" as="geometry" />
        </mxCell>
        <mxCell id="sab_f4_oYgcBB9rR3nIX-82" value="/data/mysql" style="text;html=1;strokeColor=none;fillColor=none;align=center;verticalAlign=middle;whiteSpace=wrap;rounded=0;fontStyle=1" parent="1" vertex="1">
          <mxGeometry x="-165" y="528" width="60" height="30" as="geometry" />
        </mxCell>
        <mxCell id="sab_f4_oYgcBB9rR3nIX-83" value="FRONTEND" style="text;html=1;strokeColor=none;fillColor=none;align=center;verticalAlign=middle;whiteSpace=wrap;rounded=0;fontStyle=1" parent="1" vertex="1">
          <mxGeometry x="-705" y="189" width="120" height="30" as="geometry" />
        </mxCell>
        <mxCell id="sab_f4_oYgcBB9rR3nIX-84" value="BACKEND" style="text;html=1;strokeColor=none;fillColor=none;align=center;verticalAlign=middle;whiteSpace=wrap;rounded=0;fontStyle=1" parent="1" vertex="1">
          <mxGeometry x="-310" y="189" width="60" height="30" as="geometry" />
        </mxCell>
        <mxCell id="sab_f4_oYgcBB9rR3nIX-85" value="" style="sketch=0;html=1;dashed=0;whitespace=wrap;fillColor=#2875E2;strokeColor=#ffffff;points=[[0.005,0.63,0],[0.1,0.2,0],[0.9,0.2,0],[0.5,0,0],[0.995,0.63,0],[0.72,0.99,0],[0.5,1,0],[0.28,0.99,0]];verticalLabelPosition=bottom;align=center;verticalAlign=top;shape=mxgraph.kubernetes.icon;prIcon=secret" parent="1" vertex="1">
          <mxGeometry x="-140" y="308" width="50" height="52" as="geometry" />
        </mxCell>
        <mxCell id="sab_f4_oYgcBB9rR3nIX-86" value="" style="sketch=0;html=1;dashed=0;whitespace=wrap;fillColor=#2875E2;strokeColor=#ffffff;points=[[0.005,0.63,0],[0.1,0.2,0],[0.9,0.2,0],[0.5,0,0],[0.995,0.63,0],[0.72,0.99,0],[0.5,1,0],[0.28,0.99,0]];verticalLabelPosition=bottom;align=center;verticalAlign=top;shape=mxgraph.kubernetes.icon;prIcon=secret" parent="1" vertex="1">
          <mxGeometry x="-690" y="276" width="50" height="52" as="geometry" />
        </mxCell>
        <mxCell id="sab_f4_oYgcBB9rR3nIX-87" value="secret" style="text;html=1;strokeColor=none;fillColor=none;align=center;verticalAlign=middle;whiteSpace=wrap;rounded=0;fontStyle=1" parent="1" vertex="1">
          <mxGeometry x="-700" y="328" width="60" height="30" as="geometry" />
        </mxCell>
        <mxCell id="sab_f4_oYgcBB9rR3nIX-88" value="secret" style="text;html=1;strokeColor=none;fillColor=none;align=center;verticalAlign=middle;whiteSpace=wrap;rounded=0;fontStyle=1" parent="1" vertex="1">
          <mxGeometry x="-145" y="286" width="60" height="30" as="geometry" />
        </mxCell>
      </root>
    </mxGraphModel>
  </diagram>
</mxfile>
